<svg width="126" height="126" viewBox="0 0 126 126" fill="none" xmlns="http://www.w3.org/2000/svg"><mask id="path-1-inside-1_1_1989" fill="#fff"><path fill-rule="evenodd" clip-rule="evenodd" d="M62.727 125.453c34.642 0 62.726-28.084 62.726-62.727C125.453 28.084 97.369 0 62.726 0 28.084 0 0 28.084 0 62.727c0 13.299 4.139 25.631 11.199 35.78.593.853.826 1.911.608 2.927l-2.153 10.048c-.553 2.579 1.738 4.87 4.318 4.317l10.047-2.153a3.758 3.758 0 012.928.608c10.148 7.06 22.48 11.199 35.78 11.199z"/></mask><path fill-rule="evenodd" clip-rule="evenodd" d="M62.727 125.453c34.642 0 62.726-28.084 62.726-62.727C125.453 28.084 97.369 0 62.726 0 28.084 0 0 28.084 0 62.727c0 13.299 4.139 25.631 11.199 35.78.593.853.826 1.911.608 2.927l-2.153 10.048c-.553 2.579 1.738 4.87 4.318 4.317l10.047-2.153a3.758 3.758 0 012.928.608c10.148 7.06 22.48 11.199 35.78 11.199z" fill="#F5F9E9"/><path d="M24.02 113.646l.38 1.778-.38-1.778zm2.927.608l-1.038 1.493 1.038-1.493zm-17.293-2.772l-1.778-.381 1.778.381zm4.318 4.317l-.381-1.778.38 1.778zm-2.773-17.293l-1.493 1.039 1.493-1.039zm112.436-35.78c0 33.64-27.27 60.909-60.909 60.909v3.636c35.648 0 64.545-28.897 64.545-64.544h-3.636zM62.726 1.819c33.64 0 60.909 27.27 60.909 60.909h3.636c0-35.648-28.897-64.545-64.544-64.545v3.636zM1.819 62.727c0-33.64 27.27-60.909 60.909-60.909v-3.636c-35.648 0-64.545 28.897-64.545 64.545h3.636zm10.873 34.741C5.836 87.615 1.818 75.643 1.818 62.726h-3.636c0 13.683 4.26 26.376 11.524 36.819l2.985-2.077zm-1.26 14.395l2.154-10.048-3.556-.762-2.153 10.048 3.556.762zm12.207.005l-10.048 2.153.762 3.556 10.048-2.153-.762-3.556zm39.088 11.767c-12.916 0-24.888-4.018-34.74-10.873l-2.078 2.985c10.444 7.265 23.136 11.524 36.819 11.524v-3.636zM24.4 115.424a1.94 1.94 0 011.509.323l2.076-2.985a5.575 5.575 0 00-4.347-.894l.762 3.556zm-16.524-4.323c-.829 3.868 2.608 7.305 6.476 6.476l-.761-3.556a1.818 1.818 0 01-2.16-2.158l-3.555-.762zm1.83-11.556c.321.461.43 1.008.323 1.508l3.556.762a5.573 5.573 0 00-.894-4.347l-2.985 2.077z" fill="#69BA00" mask="url(#path-1-inside-1_1_1989)"/><path d="M38.81 38.282c.783 0 1.441.282 1.974.846.533.532.799 1.206.799 2.02v27.166a2.74 2.74 0 01-.893 2.069c-.595.532-1.332.799-2.209.799s-1.598-.267-2.162-.8c-.564-.564-.846-1.253-.846-2.068V46.037l-2.914 1.785c-.47.282-.971.423-1.504.423-.783 0-1.457-.297-2.021-.892-.533-.596-.799-1.254-.799-1.974 0-.502.125-.972.376-1.41a3.101 3.101 0 011.081-1.035l7.097-4.23c.533-.282 1.206-.422 2.021-.422zm22.15 33.369c-2.633 0-4.905-.704-6.816-2.114-1.88-1.41-3.306-3.385-4.277-5.923-.971-2.569-1.457-5.53-1.457-8.883 0-3.352.486-6.297 1.457-8.836.971-2.569 2.397-4.559 4.277-5.969 1.911-1.41 4.183-2.114 6.815-2.114 2.632 0 4.888.705 6.768 2.114 1.911 1.41 3.353 3.4 4.324 5.97.971 2.538 1.457 5.483 1.457 8.835 0 3.353-.486 6.314-1.457 8.883-.971 2.539-2.413 4.512-4.324 5.923-1.88 1.41-4.136 2.114-6.768 2.114zm0-5.64c2.004 0 3.571-.955 4.7-2.866 1.158-1.912 1.738-4.716 1.738-8.414 0-3.697-.58-6.501-1.739-8.413-1.128-1.91-2.695-2.866-4.7-2.866-2.005 0-3.588.955-4.747 2.867-1.128 1.91-1.692 4.715-1.692 8.412 0 3.698.564 6.502 1.692 8.413 1.16 1.912 2.742 2.867 4.747 2.867zm21.476-4.11c-.908 0-1.73-.241-2.465-.725-.715-.502-1.276-1.179-1.682-2.03-.406-.87-.609-1.827-.609-2.87 0-1.064.203-2.02.61-2.872.405-.87.966-1.546 1.681-2.03.716-.502 1.537-.754 2.465-.754.928 0 1.75.252 2.465.755.716.483 1.267 1.16 1.653 2.03.406.85.61 1.807.61 2.87 0 1.044-.213 2.002-.639 2.872-.406.85-.976 1.527-1.71 2.03a4.155 4.155 0 01-2.379.724zm.348 9.339c-.348 0-.686-.136-1.015-.406-.328-.271-.493-.61-.493-1.016 0-.25.097-.54.29-.87L93.108 51.52c.348-.465.745-.697 1.19-.697.347 0 .686.136 1.014.407.329.27.493.609.493 1.015 0 .25-.096.54-.29.87L83.973 70.543c-.348.464-.744.697-1.189.697zm-.348-11.92c.56 0 1.006-.28 1.334-.84.329-.58.493-1.315.493-2.204 0-.91-.164-1.644-.493-2.205-.31-.56-.754-.84-1.334-.84-.56 0-1.015.29-1.363.87-.328.56-.493 1.285-.493 2.175 0 .889.165 1.623.493 2.203.329.561.783.842 1.363.842zm12.441 12.152c-.87 0-1.672-.242-2.407-.725-.715-.503-1.285-1.18-1.71-2.03-.426-.87-.639-1.828-.639-2.871 0-1.064.203-2.02.61-2.872.405-.87.966-1.546 1.681-2.03.716-.502 1.537-.754 2.465-.754.928 0 1.75.252 2.465.755.716.483 1.267 1.16 1.653 2.03.406.85.61 1.807.61 2.87 0 1.044-.214 2.002-.639 2.871-.406.851-.976 1.528-1.71 2.03a4.155 4.155 0 01-2.379.726zm0-2.581c.56 0 1.006-.28 1.334-.842.329-.58.493-1.314.493-2.204 0-.908-.164-1.643-.493-2.203-.31-.561-.754-.842-1.334-.842-.56 0-1.015.29-1.363.87-.328.561-.493 1.286-.493 2.175 0 .89.165 1.624.493 2.204.329.561.783.841 1.363.841zM59.38 85.908c0 1.32-.294 2.534-.88 3.64a6.734 6.734 0 01-2.44 2.6c-1.027.64-2.187.96-3.48.96-1.293 0-2.46-.32-3.5-.96a6.783 6.783 0 01-2.42-2.6c-.573-1.106-.86-2.32-.86-3.64 0-1.32.287-2.526.86-3.62a6.746 6.746 0 012.42-2.62c1.04-.64 2.207-.96 3.5-.96 1.293 0 2.453.32 3.48.96a6.697 6.697 0 012.44 2.62c.587 1.094.88 2.3.88 3.62zm-2.6 0c0-.893-.18-1.7-.54-2.42a4.342 4.342 0 00-1.5-1.74 3.806 3.806 0 00-2.16-.64c-.813 0-1.54.214-2.18.64-.627.414-1.12.987-1.48 1.72-.347.734-.52 1.547-.52 2.44 0 .894.173 1.707.52 2.44.36.734.853 1.314 1.48 1.74.64.414 1.367.62 2.18.62.8 0 1.52-.213 2.16-.64.64-.426 1.14-1 1.5-1.72.36-.733.54-1.546.54-2.44zm8.195-4.699v3.52h4.32c.347 0 .634.113.86.34.24.213.36.493.36.84 0 .293-.12.553-.36.78-.226.226-.513.34-.86.34h-4.32v4.66c0 .346-.126.64-.38.88a1.21 1.21 0 01-.86.34c-.373 0-.68-.114-.92-.34-.226-.227-.34-.52-.34-.88v-11.56a1.198 1.198 0 011.22-1.22h6.5c.347 0 .634.113.86.34.24.213.36.493.36.84 0 .293-.12.553-.36.78-.226.226-.513.34-.86.34h-5.22zm12.031 0v3.52h4.32c.347 0 .633.113.86.34.24.213.36.493.36.84 0 .293-.12.553-.36.78a1.17 1.17 0 01-.86.34h-4.32v4.66c0 .346-.127.64-.38.88-.24.226-.527.34-.86.34-.374 0-.68-.114-.92-.34-.227-.227-.34-.52-.34-.88v-11.56c0-.347.113-.634.34-.86.24-.24.533-.36.88-.36h6.5c.346 0 .633.113.86.34.24.213.36.493.36.84 0 .293-.12.553-.36.78a1.17 1.17 0 01-.86.34h-5.22z" fill="#69BA00"/></svg>